<svg xmlns="http://www.w3.org/2000/svg" enable-background="new 0 0 24 24" viewBox="0 0 24 24"><path fill="#3B97CF" d="M18.4 17.26c-.2-.1-.6-.2-.9-.4-.3 1.2-.6 2.6-.9 4.1l6.3-1-2.1-14.1-.1.1c-.4.4-.9 1.7-1.9 5.5h.1l.3 1.6-.8.1c-.1.5-.2 1-.4 1.6 1.7.9.8 3.1.7 3.1-.1 0-.1 0-.1-.1S18.7 17.36 18.4 17.26zM10.099 6.26c.301-.2.7-.2.9.1l3.8 4.4c.799-2.401 1.5-4.5 1.5-5.2.1-.2.1-.899-.2-1.6L0 6.46l2.6 16.7 8.601-1.4c-.101-.7 2.2-6.701 2.6-7.8l-4.4.7.6-1.801 3.099-.5.801 1c0 0 .199-.5.199-.699L9.8 7.36c-.2-.3-.2-.7.101-.9L10.099 6.26 10.099 6.26zM4.1 13.859l2.7-.5L6.1 15.16l-1.8.3L4.1 13.859 4.1 13.859zM9.901 8.76l.3.1c.399.1.5.5.399.9l-3 8-1.8 2.4.2-3 3-8C9.1 8.76 9.5 8.66 9.901 8.76L9.901 8.76z"/><path fill="#3383B4" d="M4.3,15.46l-0.2-1.601l2.7-0.5L6.1,15.16L4.3,15.46L4.3,15.46z M5.8,20.16l0.2-3l3-8c0.076-0.306,0.328-0.437,0.621-0.437c0.091,0,0.185,0.012,0.28,0.036l0.3,0.1c0.399,0.1,0.5,0.5,0.399,0.9l-3,8L5.8,20.16L5.8,20.16z M10.36,4.851L0,6.46l2.6,16.7l8.601-1.4c-0.049-0.34,0.469-1.932,1.06-3.604l-0.552-3.863L9.4,14.66l0.6-1.801l1.47-0.237l-0.555-3.887L9.8,7.36c-0.2-0.3-0.2-0.7,0.101-0.9l0.199-0.2c0.135-0.09,0.291-0.139,0.439-0.139c0.001,0,0.002,0,0.004,0L10.36,4.851L10.36,4.851z"/><path fill="#CFD8DC" d="M23.7,4.26c-0.2,0.6-0.5,1.301-0.7,1.301c-0.3,0-1-0.201-1.2-0.5c-0.1-0.201-0.4-0.5-0.9-0.5c-0.301,0-0.5,0.2-0.9,0.4c-0.62,0.49-1.39,2.709-2.14,5.431l-1.48-0.25C17.04,8.1,17.54,6.41,17.599,5.76c0-0.3,0.101-1.699-0.8-2.8C16.2,2.359,15.6,2.16,15,2.16c-0.5,0-1.1,0.199-1.5,0.199c-0.2,0-0.5,0.101-0.5,0.101s-0.099,0-0.099-0.101c0-0.159,0.309-0.319,0.439-0.379C13.22,2,12.98,2.061,12.9,2.061c-0.101,0-0.101-0.101,0-0.201c0.099,0,0.399-0.1,0.5-0.199c0.399-0.2,0.699-0.301,1.1-0.4c0.9-0.3,1.9-0.3,2.799-0.2c0.601,0,1.3,0,1.901,0.2c0.599,0.2,1.2,0.4,1.7,0.9C21.2,2.46,21.6,2.76,22,2.76c0.4,0,0.6-0.1,0.701-0.199c0.2,0,1,0.199,1.099,0.298C23.901,2.96,23.901,3.66,23.7,4.26L23.7,4.26z"/><path fill="#B4BCC0" d="M16.281,1c-0.6,0-1.21,0.07-1.781,0.26c-0.4,0.099-0.701,0.2-1.1,0.4C13.3,1.76,13,1.859,12.9,1.859C12.8,1.96,12.8,2.061,12.9,2.061c0.08,0,0.319-0.061,0.439-0.08C13.21,2.04,12.9,2.2,12.9,2.359C12.9,2.46,13,2.46,13,2.46s0.3-0.101,0.5-0.101c0.4,0,1-0.199,1.5-0.199c0.599,0,1.2,0.199,1.799,0.8c0.9,1.101,0.8,2.5,0.8,2.8C17.54,6.41,17.04,8.1,16.38,10.141l0.731,0.123l2.514-8.858C19.484,1.355,19.342,1.307,19.2,1.26c-0.601-0.2-1.3-0.2-1.901-0.2C16.97,1.024,16.627,1,16.281,1L16.281,1z"/><path fill="#1F2228" d="M17.861,10.39c-1.391,5.12-2.691,12.01-2.761,12.469C14.9,23.26,14.5,23.561,13.4,23.26c-1.1-0.3-1.1-0.8-0.9-1.699c0.14-0.621,2.42-6.901,3.88-11.42L17.861,10.39L17.861,10.39z"/><path fill="#3C3F44" d="M17.096,10.261l-3.691,13c0.31,0.084,0.564,0.121,0.774,0.121c0.532,0,0.778-0.236,0.921-0.523c0.07-0.459,1.37-7.349,2.761-12.469L17.096,10.261L17.096,10.261z"/></svg>